<svg xmlns="http://www.w3.org/2000/svg" width="755" height="743.532" viewBox="0 0 756 743.532"><defs><style>.cls-1{fill:#ffe400;fill-rule:evenodd}</style></defs><path id="O" class="cls-1" d="M1760.99 586.206q-61.785 67.459-151.89 67.452t-151.9-67.452q-61.785-67.435-61.78-163.738 0-96.277 61.78-164.252 61.8-67.966 151.9-67.967t151.89 67.967q61.8 67.967 61.79 164.252 0 96.303-61.79 163.738zm225.53-164.252q0-158.574-109.16-265.173T1608.58 50.2q-159.63 0-268.77 106.584-109.17 106.584-109.16 265.173t109.16 265.172q109.14 106.584 268.77 106.583t268.78-106.583q109.14-106.587 109.16-265.175z" transform="translate(-1230.66 -50.188)"/></svg>